<svg width="7" height="10" viewBox="0 0 7 10" fill="none" xmlns="http://www.w3.org/2000/svg">
<path d="M2.28409 6.38356V6.23867C2.28693 5.74151 2.33096 5.3452 2.41619 5.04975C2.50426 4.75429 2.6321 4.51566 2.79971 4.33384C2.96733 4.15202 3.16903 3.98725 3.40483 3.83952C3.58096 3.72589 3.73863 3.60799 3.87784 3.48583C4.01704 3.36367 4.12784 3.22873 4.21022 3.081C4.29261 2.93043 4.3338 2.76282 4.3338 2.57816C4.3338 2.38214 4.28693 2.21026 4.19318 2.06253C4.09943 1.91481 3.97301 1.80117 3.81392 1.72162C3.65767 1.64208 3.48437 1.60231 3.29403 1.60231C3.10937 1.60231 2.93466 1.6435 2.76988 1.72589C2.60511 1.80543 2.47017 1.92475 2.36505 2.08384C2.25994 2.24009 2.20312 2.43469 2.1946 2.66765H0.455963C0.470168 2.09947 0.606531 1.63072 0.865054 1.2614C1.12358 0.889238 1.46591 0.612249 1.89204 0.430431C2.31818 0.245772 2.78835 0.153442 3.30255 0.153442C3.86789 0.153442 4.36789 0.247192 4.80255 0.434692C5.23721 0.619351 5.57812 0.887817 5.82528 1.24009C6.07244 1.59236 6.19602 2.01708 6.19602 2.51424C6.19602 2.84662 6.14062 3.14208 6.02983 3.4006C5.92187 3.65628 5.76988 3.88356 5.57386 4.08242C5.37784 4.27844 5.1463 4.456 4.87926 4.61509C4.65483 4.74861 4.47017 4.88782 4.32528 5.0327C4.18324 5.17759 4.0767 5.3452 4.00568 5.53554C3.9375 5.72589 3.90199 5.96026 3.89915 6.23867V6.38356H2.28409ZM3.12784 9.11083C2.84375 9.11083 2.60085 9.0114 2.39915 8.81253C2.20028 8.61083 2.10227 8.36935 2.10511 8.0881C2.10227 7.80969 2.20028 7.57106 2.39915 7.37219C2.60085 7.17333 2.84375 7.0739 3.12784 7.0739C3.39772 7.0739 3.63494 7.17333 3.83949 7.37219C4.04403 7.57106 4.14772 7.80969 4.15057 8.0881C4.14772 8.2756 4.09801 8.44748 4.00142 8.60373C3.90767 8.75714 3.78409 8.88072 3.63068 8.97447C3.47727 9.06537 3.30966 9.11083 3.12784 9.11083Z" fill="#D11212"/>
</svg>
